<svg width="44" height="44" viewBox="0 0 44 44" fill="none" xmlns="http://www.w3.org/2000/svg">
<path d="M28.4815 9.03639L23.296 3.85094C22.5801 3.13497 21.4193 3.13497 20.7033 3.85094L15.5179 9.03639C14.8019 9.75235 14.8019 10.9131 15.5179 11.6291L20.7033 16.8146C21.4193 17.5305 22.5801 17.5305 23.296 16.8146L28.4815 11.6291C29.1974 10.9131 29.1974 9.75235 28.4815 9.03639Z" stroke="#1D19E3" stroke-linecap="round" stroke-linejoin="round"/>
<path d="M16.8146 20.7037L11.6291 15.5183C10.9131 14.8023 9.75235 14.8023 9.03639 15.5183L3.85094 20.7037C3.13497 21.4197 3.13497 22.5805 3.85094 23.2965L9.03639 28.4819C9.75235 29.1979 10.9131 29.1979 11.6291 28.4819L16.8146 23.2965C17.5305 22.5805 17.5305 21.4197 16.8146 20.7037Z" stroke="#1D19E3" stroke-linecap="round" stroke-linejoin="round"/>
<path d="M40.1484 20.7037L34.9629 15.5183C34.247 14.8023 33.0862 14.8023 32.3702 15.5183L27.1848 20.7037C26.4688 21.4197 26.4688 22.5805 27.1848 23.2965L32.3702 28.4819C33.0862 29.1979 34.247 29.1979 34.9629 28.4819L40.1484 23.2965C40.8643 22.5805 40.8643 21.4197 40.1484 20.7037Z" stroke="#1D19E3" stroke-linecap="round" stroke-linejoin="round"/>
<path d="M28.4815 32.3711L23.296 27.1857C22.5801 26.4697 21.4193 26.4697 20.7033 27.1857L15.5179 32.3711C14.8019 33.0871 14.8019 34.2479 15.5179 34.9638L20.7033 40.1493C21.4193 40.8652 22.5801 40.8652 23.296 40.1493L28.4815 34.9638C29.1974 34.2479 29.1974 33.0871 28.4815 32.3711Z" stroke="#1D19E3" stroke-linecap="round" stroke-linejoin="round"/>
</svg>
