<svg width="44" height="44" viewBox="0 0 44 44" fill="none" xmlns="http://www.w3.org/2000/svg">
<path d="M12.8333 36.6667C12.8333 33.6291 16.9374 31.1667 22 31.1667C27.0626 31.1667 31.1667 33.6291 31.1667 36.6667" stroke="white" stroke-width="2" stroke-linecap="round" stroke-linejoin="round"/>
<path d="M33 26.1241C36.2375 26.9728 38.5 28.9111 38.5 31.1665" stroke="white" stroke-width="2" stroke-linecap="round" stroke-linejoin="round"/>
<path d="M11 26.1241C7.76251 26.9728 5.5 28.9111 5.5 31.1665" stroke="white" stroke-width="2" stroke-linecap="round" stroke-linejoin="round"/>
<path d="M22 25.6667C25.0376 25.6667 27.5 23.2042 27.5 20.1667C27.5 17.1291 25.0376 14.6667 22 14.6667C18.9624 14.6667 16.5 17.1291 16.5 20.1667C16.5 23.2042 18.9624 25.6667 22 25.6667Z" stroke="white" stroke-width="2" stroke-linecap="round" stroke-linejoin="round"/>
<path d="M33 18.7662C34.1252 17.7591 34.8333 16.2956 34.8333 14.6667C34.8333 11.6291 32.3709 9.16667 29.3333 9.16667C27.9247 9.16667 26.6397 9.69623 25.6667 10.5671" stroke="white" stroke-width="2" stroke-linecap="round" stroke-linejoin="round"/>
<path d="M11 18.7662C9.87479 17.7591 9.16667 16.2956 9.16667 14.6667C9.16667 11.6291 11.6291 9.16667 14.6667 9.16667C16.0753 9.16667 17.3603 9.69623 18.3333 10.5671" stroke="white" stroke-width="2" stroke-linecap="round" stroke-linejoin="round"/>
</svg>
