<svg width="44" height="44" viewBox="0 0 44 44" fill="none" xmlns="http://www.w3.org/2000/svg">
<path d="M16.5 20.1667H7.33333C6.32081 20.1667 5.5 20.9875 5.5 22V36.6667H16.5V20.1667Z" stroke="white" stroke-width="2" stroke-linecap="round" stroke-linejoin="round"/>
<path d="M36.6667 14.6667H27.5V36.6667H38.5V16.5C38.5 15.4875 37.6792 14.6667 36.6667 14.6667Z" stroke="white" stroke-width="2" stroke-linecap="round" stroke-linejoin="round"/>
<path d="M25.6667 7.33333H18.3333C17.3208 7.33333 16.5 8.15414 16.5 9.16667V36.6667H27.5V9.16667C27.5 8.15414 26.6792 7.33333 25.6667 7.33333Z" stroke="white" stroke-width="2" stroke-linecap="round" stroke-linejoin="round"/>
<path d="M39.0833 7C39.0833 6.12626 38.8031 5.27556 38.2837 4.57291C37.7644 3.87027 37.0334 3.35274 36.1981 3.09638C35.3628 2.84002 34.4673 2.85835 33.6432 3.14868C32.8191 3.43901 32.1099 3.98602 31.6197 4.70933C31.1296 5.43264 30.8843 6.2941 30.9201 7.16711C30.9559 8.04012 31.2707 8.87864 31.8184 9.55944C32.366 10.2402 33.1176 10.7274 33.9627 10.9494C34.8078 11.1713 35.7018 11.1164 36.5133 10.7926" stroke="white" stroke-linecap="round" stroke-linejoin="round"/>
<path d="M39.0833 7V7.58333C39.0833 8.22767 38.561 8.75 37.9167 8.75C37.2723 8.75 36.75 8.22767 36.75 7.58333V5.25" stroke="white" stroke-linecap="round" stroke-linejoin="round"/>
<path d="M36.75 7C36.75 7.9665 35.9665 8.75 35 8.75C34.0335 8.75 33.25 7.9665 33.25 7C33.25 6.0335 34.0335 5.25 35 5.25C35.9665 5.25 36.75 6.0335 36.75 7Z" stroke="white" stroke-linecap="round" stroke-linejoin="round"/>
</svg>
