<svg width="44" height="44" viewBox="0 0 44 44" fill="none" xmlns="http://www.w3.org/2000/svg">
<path d="M31.1667 36.6667C31.1667 35.6541 31.9875 34.8333 33 34.8333C34.0125 34.8333 34.8333 35.6541 34.8333 36.6667C34.8333 37.6792 34.0125 38.5 33 38.5C31.9875 38.5 31.1667 37.6792 31.1667 36.6667Z" stroke="white" stroke-width="2" stroke-linecap="round" stroke-linejoin="round"/>
<path d="M12.8333 36.6667C12.8333 35.6541 13.6541 34.8333 14.6667 34.8333C15.6792 34.8333 16.5 35.6541 16.5 36.6667C16.5 37.6792 15.6792 38.5 14.6667 38.5C13.6541 38.5 12.8333 37.6792 12.8333 36.6667Z" stroke="white" stroke-width="2" stroke-linecap="round" stroke-linejoin="round"/>
<path d="M5.5 5.5H6.90748C7.79163 5.5 8.54983 6.13104 8.71035 7.0005L12.8333 29.3333" stroke="white" stroke-width="2" stroke-linecap="round" stroke-linejoin="round"/>
<path d="M10.0833 11H36.1954C37.3744 11 38.2469 12.0968 37.9818 13.2456L34.5972 27.9122C34.4052 28.7441 33.6645 29.3333 32.8108 29.3333H12.8333" stroke="white" stroke-width="2" stroke-linecap="round" stroke-linejoin="round"/>
</svg>
