<svg width="272" height="272" viewBox="0 0 272 272" fill="none" xmlns="http://www.w3.org/2000/svg">
<path fill-rule="evenodd" clip-rule="evenodd" d="M183.417 121.924C209.412 119.664 230.104 123.147 246.777 130.85C256.872 135.514 265.14 141.563 272 148.354V0H184.732C179.38 9.63108 173.864 22.196 170.353 36.5243C163.986 62.5153 164.496 93.0364 183.417 121.924ZM135.829 0C128.098 11.2485 122.183 24.6482 120.599 40.8819C118.293 64.5298 125.292 92.9625 146.998 128.107C142.03 129.31 136.91 130.681 131.632 132.225C115.034 137.079 97.242 144.009 78.2225 153.323C54.1959 165.088 28.1483 180.688 -1.52588e-05 200.792V0H135.829ZM142.404 163.541C144.098 163.046 145.771 162.57 147.425 162.114C191.867 151.979 221.515 156.027 242.045 166.377C254.875 172.845 264.463 181.933 272 192.137V272H-1.52588e-05V241.289C33.7128 215.859 64.2357 197.039 91.699 183.59C109.955 174.651 126.843 168.092 142.404 163.541Z" fill="#3B82F6"/>
</svg>
