<svg width="44" height="44" viewBox="0 0 44 44" fill="none" xmlns="http://www.w3.org/2000/svg">
<path d="M22 29.3333C26.0501 29.3333 29.3333 26.0501 29.3333 22C29.3333 17.9499 26.0501 14.6667 22 14.6667C17.9499 14.6667 14.6667 17.9499 14.6667 22C14.6667 26.0501 17.9499 29.3333 22 29.3333Z" stroke="white" stroke-width="2" stroke-linecap="round" stroke-linejoin="round"/>
<path d="M35.1397 14.5567L35.0191 14.348C34.6866 13.7723 34.5168 13.117 34.528 12.4523L34.5828 9.19111C34.5941 8.52465 34.2427 7.90461 33.6651 7.5718L28.6479 4.68063C28.0718 4.34866 27.3612 4.35461 26.7907 4.69617L24.0057 6.36375C23.4365 6.70457 22.7855 6.88457 22.1221 6.88457H21.8806C21.2158 6.88457 20.5634 6.70378 19.9934 6.36156L17.1956 4.68191C16.6231 4.33825 15.9091 4.33297 15.3316 4.66812L10.3303 7.57082C9.75561 7.90439 9.40637 8.52286 9.41755 9.18729L9.47248 12.4523C9.48367 13.117 9.3139 13.7723 8.98135 14.348L8.86239 14.5539C8.52966 15.13 8.0465 15.6046 7.46466 15.927L4.61404 17.5068C4.02976 17.8306 3.66784 18.4465 3.66935 19.1145L3.68248 24.8928C3.68399 25.5568 4.04434 26.168 4.62454 26.4908L7.46148 28.069C8.04531 28.3938 8.5293 28.8719 8.86118 29.4517L8.98864 29.6744C9.31651 30.2472 9.4837 30.8979 9.47255 31.5578L9.41768 34.8085C9.40642 35.475 9.75783 36.0951 10.3354 36.4279L15.3526 39.3191C15.9286 39.6511 16.6393 39.6451 17.2097 39.3035L19.9947 37.636C20.5639 37.2951 21.2149 37.1151 21.8784 37.1151H22.1198C22.7847 37.1151 23.4371 37.2959 24.0071 37.6381L26.8049 39.3178C27.3773 39.6615 28.0913 39.6667 28.6688 39.3316L33.6701 36.4289C34.2448 36.0953 34.5941 35.4769 34.5829 34.8124L34.528 31.5474C34.5168 30.8827 34.6866 30.2274 35.0191 29.6517L35.1381 29.4458C35.4708 28.8698 35.954 28.3951 36.5358 28.0727L39.3864 26.4929C39.9707 26.1692 40.3326 25.5532 40.3311 24.8852L40.318 19.1069C40.3165 18.4429 39.9561 17.8317 39.3759 17.5089L36.5322 15.9269C35.9526 15.6045 35.4714 15.131 35.1397 14.5567Z" stroke="white" stroke-width="2" stroke-linecap="round" stroke-linejoin="round"/>
</svg>
