<svg width="44" height="44" viewBox="0 0 44 44" fill="none" xmlns="http://www.w3.org/2000/svg">
<path d="M3.66667 36.6667H40.3333" stroke="white" stroke-width="2" stroke-linecap="round" stroke-linejoin="round"/>
<path d="M26.8919 23.1792L18.6419 15.7674C17.945 15.1414 16.8883 15.1414 16.1914 15.7674L7.94144 23.1792C7.5544 23.5269 7.33333 24.0227 7.33333 24.543V34.8333C7.33333 35.8459 8.15414 36.6667 9.16666 36.6667H27.5V24.543C27.5 24.0227 27.2789 23.5269 26.8919 23.1792Z" stroke="white" stroke-width="2" stroke-linecap="round" stroke-linejoin="round"/>
<path d="M27.2708 36.6667H34.8333C35.8459 36.6667 36.6667 35.8459 36.6667 34.8333V9.16667C36.6667 8.15414 35.8459 7.33333 34.8333 7.33333H14.6667C13.6541 7.33333 12.8333 8.15414 12.8333 9.16667V18.3333" stroke="white" stroke-width="2" stroke-linecap="round" stroke-linejoin="round"/>
</svg>
