<svg width="44" height="44" viewBox="0 0 44 44" fill="none" xmlns="http://www.w3.org/2000/svg">
<path d="M16.5 23.8333C18.525 23.8333 20.1667 22.1917 20.1667 20.1667C20.1667 18.1416 18.525 16.5 16.5 16.5C14.475 16.5 12.8333 18.1416 12.8333 20.1667C12.8333 22.1917 14.475 23.8333 16.5 23.8333Z" stroke="#1D19E3" stroke-linecap="round" stroke-linejoin="round"/>
<path d="M36.6667 11H7.33333C6.32081 11 5.5 11.8208 5.5 12.8333V31.1667C5.5 32.1792 6.32081 33 7.33333 33H36.6667C37.6792 33 38.5 32.1792 38.5 31.1667V12.8333C38.5 11.8208 37.6792 11 36.6667 11Z" stroke="#1D19E3" stroke-linecap="round" stroke-linejoin="round"/>
<path d="M11 33C11 30.975 13.4624 29.3333 16.5 29.3333C19.5376 29.3333 22 30.975 22 33" stroke="#1D19E3" stroke-linecap="round" stroke-linejoin="round"/>
<path d="M33 25.6667L25.6667 25.6667" stroke="#1D19E3" stroke-linecap="round" stroke-linejoin="round"/>
<path d="M33 20.1667L27.5 20.1667" stroke="#1D19E3" stroke-linecap="round" stroke-linejoin="round"/>
</svg>
